<?xml version="1.0" encoding="UTF-8"?>
<svg width="975px" height="5px" viewBox="0 0 975 5" version="1.1" xmlns="http://www.w3.org/2000/svg" xmlns:xlink="http://www.w3.org/1999/xlink">
    <!-- Generator: Sketch 52.3 (67297) - http://www.bohemiancoding.com/sketch -->
    <title>Road</title>
    <desc>Created with Sketch.</desc>
    <g id="Final-Design" stroke="none" stroke-width="1" fill="none" fill-rule="evenodd" stroke-linecap="round" stroke-linejoin="round">
        <g id="Homepage---version-1" transform="translate(-318.000000, -799.000000)" stroke="#F69320" stroke-width="4">
            <g id="Illustration" transform="translate(319.000000, 335.000000)">
                <g id="Road" transform="translate(486.000000, 466.500000) scale(-1, 1) translate(-486.000000, -466.500000) translate(0.000000, 464.000000)">
                    <path d="M476.580775,2.5 L534.387662,2.5" id="Line-Copy"></path>
                    <path d="M451.367132,2.5 L463.051503,2.5" id="Line-Copy-2"></path>
                    <path d="M628.756759,2.5 L686.563646,2.5" id="Line-Copy-3"></path>
                    <path d="M603.312504,2.5 L614.996875,2.5" id="Line-Copy-4"></path>
                    <path d="M780.614967,2.5 L838.421854,2.5" id="Line-Copy-5"></path>
                    <path d="M912.614967,2.5 L970.421854,2.5" id="Line-Copy-7"></path>
                    <path d="M755,2.5 L766.684371,2.5" id="Line-Copy-6"></path>
                    <path d="M888,2.5 L899.684371,2.5" id="Line-Copy-8"></path>
                    <path d="M25.2136424,2.5 L83.0205299,2.5" id="Line-Copy"></path>
                    <path d="M0,2.5 L11.6843709,2.5" id="Line-Copy-2"></path>
                    <path d="M177.389626,2.5 L235.196514,2.5" id="Line-Copy-3"></path>
                    <path d="M151.945371,2.5 L163.629742,2.5" id="Line-Copy-4"></path>
                    <path d="M329.104385,2.5 L386.911272,2.5" id="Line-Copy-5"></path>
                    <path d="M303.890743,2.5 L315.575113,2.5" id="Line-Copy-6"></path>
                </g>
            </g>
        </g>
    </g>
</svg>