<?xml version="1.0" encoding="UTF-8"?>
<svg width="492px" height="266px" viewBox="0 0 492 266" version="1.1" xmlns="http://www.w3.org/2000/svg" xmlns:xlink="http://www.w3.org/1999/xlink">
    <!-- Generator: Sketch 52.3 (67297) - http://www.bohemiancoding.com/sketch -->
    <title>Group 4</title>
    <desc>Created with Sketch.</desc>
    <defs>
        <polygon id="path-1" points="0.000463190729 0 151.000178 0 151.000178 118.045455 0.000463190729 118.045455"></polygon>
        <polygon id="path-3" points="0.3896 0.9131 111.4766 0.9131 111.4766 112 0.3896 112"></polygon>
        <polygon id="path-5" points="0.5439 0.9131 111.6309 0.9131 111.6309 112 0.5439 112"></polygon>
        <path d="M0.228,0.859 L0.228,74.014 L107.229,74.014 C108.876,74.014 109.797,72.109 108.768,70.818 L53.06,0.859 L0.228,0.859 Z" id="path-7"></path>
        <polygon id="path-9" points="1.1357 0.272 1.634 0.272 1.634 44.977 1.1357 44.977"></polygon>
        <polygon id="path-11" points="0 0.6909 21.6759 0.6909 21.6759 53.5249 0 53.5249"></polygon>
    </defs>
    <g id="Final-Design" stroke="none" stroke-width="1" fill="none" fill-rule="evenodd">
        <g id="Forgot-Password" transform="translate(-786.000000, -335.000000)">
            <g id="Illustration" transform="translate(592.000000, 48.000000)">
                <g id="Group-4" transform="translate(440.000000, 420.000000) scale(-1, 1) translate(-440.000000, -420.000000) translate(194.000000, 287.000000)">
                    <g id="Group-6" transform="translate(262.000000, 0.000000)">
                        <g id="Box" transform="translate(0.704786, 0.636364)">
                            <path d="M2.2342141,8.59873323 L2.2342141,107.218536 C2.2342141,110.738357 5.12481754,113.590909 8.69066594,113.590909 L141.001679,113.590909 C144.567527,113.590909 147.458131,110.738357 147.458131,107.218536 L147.458131,8.59873323 C147.458131,5.07982489 144.567527,2.22727273 141.001679,2.22727273 L8.69066594,2.22727273 C5.12481754,2.22727273 2.2342141,5.07982489 2.2342141,8.59873323" id="Fill-1" fill="#E7B481"></path>
                            <g id="Group-5">
                                <mask id="mask-2" fill="white">
                                    <use xlink:href="#path-1"></use>
                                </mask>
                                <g id="Clip-4"></g>
                                <path d="M9.24575013,5.53338068 C7.21234283,5.53338068 5.55875193,7.18048366 5.55875193,9.20385653 L5.55875193,108.841598 C5.55875193,110.865893 7.21234283,112.512074 9.24575013,112.512074 L141.754427,112.512074 C143.787835,112.512074 145.442352,110.865893 145.442352,108.841598 L145.442352,9.20385653 C145.442352,7.18048366 143.787835,5.53338068 141.754427,5.53338068 L9.24575013,5.53338068 Z M141.754427,118.045455 L9.24575013,118.045455 C4.14787297,118.045455 0.000463190729,113.91663 0.000463190729,108.841598 L0.000463190729,9.20385653 C0.000463190729,4.12882422 4.14787297,0 9.24575013,0 L141.754427,0 C146.852305,0 151.000641,4.12882422 151.000641,9.20385653 L151.000641,108.841598 C151.000641,113.91663 146.852305,118.045455 141.754427,118.045455 Z" id="Fill-3" fill="#1B1E34" mask="url(#mask-2)"></path>
                            </g>
                            <polygon id="Fill-6" fill="#CD7E34" points="26.8105692 2.22727273 26.8105692 42.3181818 39.178318 34.859408 48.2475628 42.3181818 57.2858577 34.859408 69.2606372 42.3181818 69.2606372 2.22727273"></polygon>
                            <path d="M39.637099,31.22548 L48.2387928,38.2977856 L56.8368255,31.2054683 L66.00324,36.9124324 L66.00324,5.4577278 L30.0679664,5.4577278 L30.0679664,36.9952079 L39.637099,31.22548 Z M71.4948513,46.7727273 L57.2871377,37.9257505 L48.2442844,45.3864644 L39.1455998,37.9057388 L24.5763551,46.6899517 L24.5763551,0 L71.4948513,0 L71.4948513,46.7727273 Z" id="Fill-8" fill="#1B1E34"></path>
                            <polygon id="Fill-10" fill="#19A4AB" points="101.301299 53.4545455 84.9001359 69.6210419 111.431428 95.7727273 127.350204 80.081716"></polygon>
                            <path d="M88.3829641,68.6663523 L110.180503,90.1597043 L121.704389,78.7966354 L100.303288,56.9123776 L88.3829641,68.6663523 Z M110.180503,98 L80.4317077,68.6663523 L100.37639,49 L129.584418,78.8668691 L110.180503,98 Z" id="Fill-12" fill="#1B1E34"></path>
                        </g>
                    </g>
                    <g id="Mini-Open-Pickup" transform="translate(246.000000, 134.500000) scale(-1, 1) translate(-246.000000, -134.500000) translate(0.000000, 3.000000)">
                        <polygon id="Fill-1" fill="#FEFEFE" points="468.0615 182.8873 24.2375 182.8873 10.8375 154.8703 10.8375 109.7323 329.1975 109.7323 329.1975 8.1283 413.8975 8.1283 479.5715 93.5033 479.5715 167.6043"></polygon>
                        <polygon id="Fill-2" fill="#E4E4E4" points="6.773 116.506 323.778 116.506 323.778 107.023 6.773 107.023"></polygon>
                        <path d="M321.0696,-0.0002 L321.0696,101.6048 L2.7096,101.6048 L2.7096,156.7138 L19.1156,191.0158 L472.1136,191.0158 L487.6996,170.3228 L487.6996,90.7388 L417.9016,-0.0002 L321.0696,-0.0002 Z M10.8376,154.8708 L10.8376,109.7318 L329.1976,109.7318 L329.1976,8.1288 L413.8976,8.1288 L479.5716,93.5048 L479.5716,167.6038 L468.0616,182.8878 L24.2366,182.8878 L10.8376,154.8708 Z" id="Fill-3" fill="#1A1A1A"></path>
                        <polygon id="Fill-4" fill="#1B1E34" points="20.321 199.144 487.699 199.144 487.699 186.952 20.321 186.952"></polygon>
                        <path d="M16.257,203.207 L491.764,203.207 L491.764,182.888 L16.257,182.888 L16.257,203.207 Z M24.385,195.08 L483.636,195.08 L483.636,191.016 L24.385,191.016 L24.385,195.08 Z" id="Fill-5" fill="#1A1A1A"></path>
                        <g id="Group-24" transform="translate(55.000000, 150.816000)">
                            <path d="M290.4541,56.4561 C290.4541,84.8891 313.5021,107.9361 341.9331,107.9361 C370.3641,107.9361 393.4131,84.8891 393.4131,56.4561 C393.4131,28.0251 370.3641,4.9771 341.9331,4.9771 C313.5021,4.9771 290.4541,28.0251 290.4541,56.4561" id="Fill-6" fill="#1B1E34"></path>
                            <g id="Group-10" transform="translate(286.000000, 0.000000)">
                                <mask id="mask-4" fill="white">
                                    <use xlink:href="#path-3"></use>
                                </mask>
                                <g id="Clip-9"></g>
                                <path d="M8.5176,56.4561 C8.5176,82.6021 29.7886,103.8711 55.9336,103.8711 C82.0786,103.8711 103.3486,82.6021 103.3486,56.4561 C103.3486,30.3111 82.0786,9.0411 55.9336,9.0411 C29.7886,9.0411 8.5176,30.3111 8.5176,56.4561 M0.3896,56.4561 C0.3896,25.8291 25.3066,0.9131 55.9336,0.9131 C86.5596,0.9131 111.4766,25.8291 111.4766,56.4561 C111.4766,87.0831 86.5596,112.0001 55.9336,112.0001 C25.3066,112.0001 0.3896,87.0831 0.3896,56.4561" id="Fill-8" fill="#1A1A1A" mask="url(#mask-4)"></path>
                            </g>
                            <path d="M321.3418,55.5977 C321.3418,66.4967 330.1768,75.3317 341.0738,75.3317 C351.9738,75.3317 360.8088,66.4967 360.8088,55.5977 C360.8088,44.7007 351.9738,35.8657 341.0738,35.8657 C330.1768,35.8657 321.3418,44.7007 321.3418,55.5977" id="Fill-11" fill="#A6AFBE"></path>
                            <path d="M325.4053,55.5977 C325.4053,64.2397 332.4343,71.2677 341.0743,71.2677 C349.7153,71.2677 356.7453,64.2397 356.7453,55.5977 C356.7453,46.9577 349.7153,39.9287 341.0743,39.9287 C332.4343,39.9287 325.4053,46.9577 325.4053,55.5977 M317.2773,55.5977 C317.2773,42.4757 327.9523,31.7997 341.0743,31.7997 C354.1973,31.7997 364.8733,42.4757 364.8733,55.5977 C364.8733,68.7197 354.1973,79.3967 341.0743,79.3967 C327.9523,79.3967 317.2773,68.7197 317.2773,55.5977" id="Fill-13" fill="#1A1A1A"></path>
                            <path d="M4.6074,56.4561 C4.6074,84.8891 27.6564,107.9361 56.0864,107.9361 C84.5184,107.9361 107.5664,84.8891 107.5664,56.4561 C107.5664,28.0251 84.5184,4.9771 56.0864,4.9771 C27.6564,4.9771 4.6074,28.0251 4.6074,56.4561" id="Fill-15" fill="#1B1E34"></path>
                            <g id="Group-19">
                                <mask id="mask-6" fill="white">
                                    <use xlink:href="#path-5"></use>
                                </mask>
                                <g id="Clip-18"></g>
                                <path d="M8.6719,56.4561 C8.6719,82.6021 29.9429,103.8711 56.0869,103.8711 C82.2319,103.8711 103.5019,82.6021 103.5019,56.4561 C103.5019,30.3111 82.2319,9.0411 56.0869,9.0411 C29.9429,9.0411 8.6719,30.3111 8.6719,56.4561 M0.5439,56.4561 C0.5439,25.8291 25.4599,0.9131 56.0869,0.9131 C86.7139,0.9131 111.6309,25.8291 111.6309,56.4561 C111.6309,87.0831 86.7139,112.0001 56.0869,112.0001 C25.4599,112.0001 0.5439,87.0831 0.5439,56.4561" id="Fill-17" fill="#1A1A1A" mask="url(#mask-6)"></path>
                            </g>
                            <path d="M35.4951,55.5977 C35.4951,66.4967 44.3301,75.3317 55.2291,75.3317 C66.1281,75.3317 74.9631,66.4967 74.9631,55.5977 C74.9631,44.7007 66.1281,35.8657 55.2291,35.8657 C44.3301,35.8657 35.4951,44.7007 35.4951,55.5977" id="Fill-20" fill="#A6AFBE"></path>
                            <path d="M39.5596,55.5977 C39.5596,64.2397 46.5876,71.2677 55.2286,71.2677 C63.8696,71.2677 70.8996,64.2397 70.8996,55.5977 C70.8996,46.9577 63.8696,39.9287 55.2286,39.9287 C46.5876,39.9287 39.5596,46.9577 39.5596,55.5977 M31.4306,55.5977 C31.4306,42.4757 42.1066,31.7997 55.2286,31.7997 C68.3516,31.7997 79.0276,42.4757 79.0276,55.5977 C79.0276,68.7197 68.3516,79.3967 55.2286,79.3967 C42.1066,79.3967 31.4306,68.7197 31.4306,55.5977" id="Fill-22" fill="#1A1A1A"></path>
                        </g>
                        <g id="Group-60" transform="translate(352.000000, 20.816000)">
                            <mask id="mask-8" fill="white">
                                <use xlink:href="#path-7"></use>
                            </mask>
                            <g id="Clip-26"></g>
                            <polygon id="Fill-25" fill="#CCD0D8" mask="url(#mask-8)" points="109.202 74.015 109.797 74.015 109.797 0.86 109.202 0.86"></polygon>
                            <polygon id="Fill-27" fill="#CCD0D8" mask="url(#mask-8)" points="105.797 74.015 109.202 74.015 109.202 0.86 105.797 0.86"></polygon>
                            <polygon id="Fill-28" fill="#CBCFD7" mask="url(#mask-8)" points="102.391 74.015 105.797 74.015 105.797 0.86 102.391 0.86"></polygon>
                            <polygon id="Fill-29" fill="#CACDD6" mask="url(#mask-8)" points="98.985 74.015 102.389 74.015 102.389 0.86 98.985 0.86"></polygon>
                            <polygon id="Fill-30" fill="#C8CCD5" mask="url(#mask-8)" points="95.58 74.015 98.985 74.015 98.985 0.86 95.58 0.86"></polygon>
                            <polygon id="Fill-31" fill="#C6CBD4" mask="url(#mask-8)" points="92.175 74.015 95.58 74.015 95.58 0.86 92.175 0.86"></polygon>
                            <polygon id="Fill-32" fill="#C5CAD3" mask="url(#mask-8)" points="88.769 74.015 92.174 74.015 92.174 0.86 88.769 0.86"></polygon>
                            <polygon id="Fill-33" fill="#C4C8D2" mask="url(#mask-8)" points="85.363 74.015 88.768 74.015 88.768 0.86 85.363 0.86"></polygon>
                            <polygon id="Fill-34" fill="#C4C8D2" mask="url(#mask-8)" points="81.958 74.015 85.363 74.015 85.363 0.86 81.958 0.86"></polygon>
                            <polygon id="Fill-35" fill="#C3C7D0" mask="url(#mask-8)" points="78.553 74.015 81.958 74.015 81.958 0.86 78.553 0.86"></polygon>
                            <polygon id="Fill-36" fill="#C2C6D1" mask="url(#mask-8)" points="75.147 74.015 78.551 74.015 78.551 0.86 75.147 0.86"></polygon>
                            <polygon id="Fill-37" fill="#C1C6D0" mask="url(#mask-8)" points="71.742 74.015 75.147 74.015 75.147 0.86 71.742 0.86"></polygon>
                            <polygon id="Fill-38" fill="#C0C5CF" mask="url(#mask-8)" points="68.337 74.015 71.742 74.015 71.742 0.86 68.337 0.86"></polygon>
                            <polygon id="Fill-39" fill="#BFC4CE" mask="url(#mask-8)" points="64.931 74.015 68.337 74.015 68.337 0.86 64.931 0.86"></polygon>
                            <polygon id="Fill-40" fill="#BEC3CE" mask="url(#mask-8)" points="61.525 74.015 64.929 74.015 64.929 0.86 61.525 0.86"></polygon>
                            <polygon id="Fill-41" fill="#BDC2CD" mask="url(#mask-8)" points="58.12 74.015 61.525 74.015 61.525 0.86 58.12 0.86"></polygon>
                            <polygon id="Fill-42" fill="#BCC1CC" mask="url(#mask-8)" points="54.715 74.015 58.12 74.015 58.12 0.86 54.715 0.86"></polygon>
                            <polygon id="Fill-43" fill="#BAC0CC" mask="url(#mask-8)" points="51.309 74.015 54.714 74.015 54.714 0.86 51.309 0.86"></polygon>
                            <polygon id="Fill-44" fill="#B9BFCB" mask="url(#mask-8)" points="47.903 74.015 51.308 74.015 51.308 0.86 47.903 0.86"></polygon>
                            <polygon id="Fill-45" fill="#B8BECA" mask="url(#mask-8)" points="44.498 74.015 47.903 74.015 47.903 0.86 44.498 0.86"></polygon>
                            <polygon id="Fill-46" fill="#B8BECA" mask="url(#mask-8)" points="41.093 74.015 44.498 74.015 44.498 0.86 41.093 0.86"></polygon>
                            <polygon id="Fill-47" fill="#B6BCC9" mask="url(#mask-8)" points="37.687 74.015 41.091 74.015 41.091 0.86 37.687 0.86"></polygon>
                            <polygon id="Fill-48" fill="#B5BBC8" mask="url(#mask-8)" points="34.282 74.015 37.687 74.015 37.687 0.86 34.282 0.86"></polygon>
                            <polygon id="Fill-49" fill="#B4BBC7" mask="url(#mask-8)" points="30.877 74.015 34.282 74.015 34.282 0.86 30.877 0.86"></polygon>
                            <polygon id="Fill-50" fill="#B3BAC7" mask="url(#mask-8)" points="27.471 74.015 30.877 74.015 30.877 0.86 27.471 0.86"></polygon>
                            <polygon id="Fill-51" fill="#B3B9C6" mask="url(#mask-8)" points="24.065 74.015 27.469 74.015 27.469 0.86 24.065 0.86"></polygon>
                            <polygon id="Fill-52" fill="#B1B8C5" mask="url(#mask-8)" points="20.66 74.015 24.065 74.015 24.065 0.86 20.66 0.86"></polygon>
                            <polygon id="Fill-53" fill="#B1B7C5" mask="url(#mask-8)" points="17.255 74.015 20.66 74.015 20.66 0.86 17.255 0.86"></polygon>
                            <polygon id="Fill-54" fill="#B0B7C5" mask="url(#mask-8)" points="13.85 74.015 17.255 74.015 17.255 0.86 13.85 0.86"></polygon>
                            <polygon id="Fill-55" fill="#AEB6C4" mask="url(#mask-8)" points="10.443 74.015 13.848 74.015 13.848 0.86 10.443 0.86"></polygon>
                            <polygon id="Fill-56" fill="#AEB4C2" mask="url(#mask-8)" points="7.038 74.015 10.443 74.015 10.443 0.86 7.038 0.86"></polygon>
                            <polygon id="Fill-57" fill="#ADB4C2" mask="url(#mask-8)" points="3.633 74.015 7.038 74.015 7.038 0.86 3.633 0.86"></polygon>
                            <polygon id="Fill-58" fill="#ACB3C1" mask="url(#mask-8)" points="0.227 74.015 3.632 74.015 3.632 0.86 0.227 0.86"></polygon>
                            <path d="M0.2275,74.0146 L0.2275,0.8596 L0.2275,74.0146 Z" id="Fill-59" fill="#ACB3C1" mask="url(#mask-8)"></path>
                        </g>
                        <g id="Group-83" transform="translate(63.000000, 16.816000)">
                            <path d="M340.1025,8.9238 L293.2905,8.9238 L293.2905,73.9508 L391.8825,73.9508 L340.1025,8.9238 Z M285.1635,0.7958 L344.0205,0.7958 L400.9485,72.2858 C402.4055,74.1148 402.6785,76.5588 401.6645,78.6648 C400.6495,80.7708 398.5675,82.0788 396.2295,82.0788 L285.1635,82.0788 L285.1635,0.7958 Z" id="Fill-61" fill="#1A1A1A"></path>
                            <path d="M319.0312,94.2715 L289.2272,94.2715" id="Fill-63" fill="#FEFEFE"></path>
                            <path d="M289.2275,98.3354 L319.0315,98.3354 C321.2765,98.3354 323.0955,96.5154 323.0955,94.2714 C323.0955,92.0264 321.2765,90.2074 319.0315,90.2074 L289.2275,90.2074 C286.9825,90.2074 285.1635,92.0264 285.1635,94.2714 C285.1635,96.5154 286.9825,98.3354 289.2275,98.3354" id="Fill-65" fill="#1A1A1A"></path>
                            <path d="M262.1328,88.8525 L262.1328,169.8645" id="Fill-67" fill="#FEFEFE"></path>
                            <path d="M262.1328,173.9287 C264.3778,173.9287 266.1958,172.1087 266.1958,169.8647 L266.1958,88.8527 C266.1958,86.6077 264.3778,84.7887 262.1328,84.7887 C259.8878,84.7887 258.0698,86.6077 258.0698,88.8527 L258.0698,169.8647 C258.0698,172.1087 259.8878,173.9287 262.1328,173.9287" id="Fill-69" fill="#1A1A1A"></path>
                            <path d="M192.2852,88.8525 L192.2852,105.1095" id="Fill-71" fill="#FEFEFE"></path>
                            <path d="M192.2852,109.1733 C194.5302,109.1733 196.3482,107.3533 196.3482,105.1093 L196.3482,88.8523 C196.3482,86.6083 194.5302,84.7883 192.2852,84.7883 C190.0402,84.7883 188.2222,86.6083 188.2222,88.8523 L188.2222,105.1093 C188.2222,107.3533 190.0402,109.1733 192.2852,109.1733" id="Fill-73" fill="#1A1A1A"></path>
                            <path d="M98.2119,88.8525 L98.2119,105.1095" id="Fill-75" fill="#FEFEFE"></path>
                            <path d="M98.2119,109.1733 C100.4569,109.1733 102.2759,107.3533 102.2759,105.1093 L102.2759,88.8523 C102.2759,86.6083 100.4569,84.7883 98.2119,84.7883 C95.9669,84.7883 94.1479,86.6083 94.1479,88.8523 L94.1479,105.1093 C94.1479,107.3533 95.9669,109.1733 98.2119,109.1733" id="Fill-77" fill="#1A1A1A"></path>
                            <path d="M4.7363,88.8525 L4.7363,105.1095" id="Fill-79" fill="#FEFEFE"></path>
                            <path d="M4.7363,109.1733 C6.9813,109.1733 8.7993,107.3533 8.7993,105.1093 L8.7993,88.8523 C8.7993,86.6083 6.9813,84.7883 4.7363,84.7883 C2.4913,84.7883 0.6723,86.6083 0.6723,88.8523 L0.6723,105.1093 C0.6723,107.3533 2.4913,109.1733 4.7363,109.1733" id="Fill-81" fill="#1A1A1A"></path>
                        </g>
                        <g id="Group-86" transform="translate(482.000000, 110.816000)">
                            <mask id="mask-10" fill="white">
                                <use xlink:href="#path-9"></use>
                            </mask>
                            <g id="Clip-85"></g>
                            <path d="M1.6357,0.2715 L1.6357,44.9775 L1.6357,0.2715 Z" id="Fill-84" fill="#F59220" mask="url(#mask-10)"></path>
                        </g>
                        <polygon id="Fill-87" fill="#F59220" points="483.472 155.793 483.635 155.793 483.635 111.088 483.472 111.088"></polygon>
                        <polygon id="Fill-88" fill="#F59321" points="483.307 155.793 483.472 155.793 483.472 111.088 483.307 111.088"></polygon>
                        <polygon id="Fill-89" fill="#F59421" points="483.143 155.793 483.306 155.793 483.306 111.088 483.143 111.088"></polygon>
                        <polygon id="Fill-90" fill="#F59521" points="482.98 155.793 483.143 155.793 483.143 111.088 482.98 111.088"></polygon>
                        <polygon id="Fill-91" fill="#F59621" points="482.817 155.793 482.981 155.793 482.981 111.088 482.817 111.088"></polygon>
                        <polygon id="Fill-92" fill="#F69721" points="482.652 155.793 482.817 155.793 482.817 111.088 482.652 111.088"></polygon>
                        <polygon id="Fill-93" fill="#F49821" points="482.489 155.793 482.652 155.793 482.652 111.088 482.489 111.088"></polygon>
                        <polygon id="Fill-94" fill="#F59921" points="482.325 155.793 482.489 155.793 482.489 111.088 482.325 111.088"></polygon>
                        <polygon id="Fill-95" fill="#F49A22" points="482.161 155.793 482.325 155.793 482.325 111.088 482.161 111.088"></polygon>
                        <polygon id="Fill-96" fill="#F69B21" points="481.998 155.793 482.162 155.793 482.162 111.088 481.998 111.088"></polygon>
                        <polygon id="Fill-97" fill="#F59C21" points="481.834 155.793 481.998 155.793 481.998 111.088 481.834 111.088"></polygon>
                        <polygon id="Fill-98" fill="#F59D21" points="481.67 155.793 481.834 155.793 481.834 111.088 481.67 111.088"></polygon>
                        <polygon id="Fill-99" fill="#F59E21" points="481.507 155.793 481.67 155.793 481.67 111.088 481.507 111.088"></polygon>
                        <polygon id="Fill-100" fill="#F59E20" points="481.342 155.793 481.507 155.793 481.507 111.088 481.342 111.088"></polygon>
                        <polygon id="Fill-101" fill="#F6A020" points="481.179 155.793 481.343 155.793 481.343 111.088 481.179 111.088"></polygon>
                        <polygon id="Fill-102" fill="#F5A121" points="481.016 155.793 481.179 155.793 481.179 111.088 481.016 111.088"></polygon>
                        <polygon id="Fill-103" fill="#F5A221" points="480.85 155.793 481.015 155.793 481.015 111.088 480.85 111.088"></polygon>
                        <polygon id="Fill-104" fill="#F5A221" points="480.687 155.793 480.85 155.793 480.85 111.088 480.687 111.088"></polygon>
                        <polygon id="Fill-105" fill="#F5A420" points="480.524 155.793 480.686 155.793 480.686 111.088 480.524 111.088"></polygon>
                        <polygon id="Fill-106" fill="#F5A51F" points="480.361 155.793 480.525 155.793 480.525 111.088 480.361 111.088"></polygon>
                        <polygon id="Fill-107" fill="#F5A61F" points="480.196 155.793 480.361 155.793 480.361 111.088 480.196 111.088"></polygon>
                        <polygon id="Fill-108" fill="#F5A720" points="480.032 155.793 480.196 155.793 480.196 111.088 480.032 111.088"></polygon>
                        <polygon id="Fill-109" fill="#F5A820" points="479.869 155.793 480.032 155.793 480.032 111.088 479.869 111.088"></polygon>
                        <polygon id="Fill-110" fill="#F5A820" points="479.705 155.793 479.869 155.793 479.869 111.088 479.705 111.088"></polygon>
                        <polygon id="Fill-111" fill="#F5A920" points="479.541 155.793 479.706 155.793 479.706 111.088 479.541 111.088"></polygon>
                        <polygon id="Fill-112" fill="#F5AB20" points="479.378 155.793 479.541 155.793 479.541 111.088 479.378 111.088"></polygon>
                        <polygon id="Fill-113" fill="#F5AB20" points="479.214 155.793 479.378 155.793 479.378 111.088 479.214 111.088"></polygon>
                        <polygon id="Fill-114" fill="#F5AC1F" points="479.05 155.793 479.214 155.793 479.214 111.088 479.05 111.088"></polygon>
                        <polygon id="Fill-115" fill="#F5AD1F" points="478.886 155.793 479.05 155.793 479.05 111.088 478.886 111.088"></polygon>
                        <polygon id="Fill-116" fill="#F6AE1E" points="478.723 155.793 478.887 155.793 478.887 111.088 478.723 111.088"></polygon>
                        <polygon id="Fill-117" fill="#F6B01E" points="478.559 155.793 478.723 155.793 478.723 111.088 478.559 111.088"></polygon>
                        <polygon id="Fill-118" fill="#F5B01D" points="478.394 155.793 478.558 155.793 478.558 111.088 478.394 111.088"></polygon>
                        <polygon id="Fill-119" fill="#F6B11C" points="478.231 155.793 478.394 155.793 478.394 111.088 478.231 111.088"></polygon>
                        <polygon id="Fill-120" fill="#F6B21C" points="478.067 155.793 478.231 155.793 478.231 111.088 478.067 111.088"></polygon>
                        <polygon id="Fill-121" fill="#F5B31D" points="477.905 155.793 478.068 155.793 478.068 111.088 477.905 111.088"></polygon>
                        <polygon id="Fill-122" fill="#F6B41D" points="477.74 155.793 477.905 155.793 477.905 111.088 477.74 111.088"></polygon>
                        <polygon id="Fill-123" fill="#F6B51E" points="477.576 155.793 477.74 155.793 477.74 111.088 477.576 111.088"></polygon>
                        <polygon id="Fill-124" fill="#F6B61D" points="477.412 155.793 477.576 155.793 477.576 111.088 477.412 111.088"></polygon>
                        <polygon id="Fill-125" fill="#F5B71E" points="477.249 155.793 477.412 155.793 477.412 111.088 477.249 111.088"></polygon>
                        <polygon id="Fill-126" fill="#F5B81E" points="477.085 155.793 477.25 155.793 477.25 111.088 477.085 111.088"></polygon>
                        <polygon id="Fill-127" fill="#F6B91E" points="476.921 155.793 477.085 155.793 477.085 111.088 476.921 111.088"></polygon>
                        <polygon id="Fill-128" fill="#F6BA1E" points="476.758 155.793 476.921 155.793 476.921 111.088 476.758 111.088"></polygon>
                        <polygon id="Fill-129" fill="#F6BB1D" points="476.594 155.793 476.758 155.793 476.758 111.088 476.594 111.088"></polygon>
                        <polygon id="Fill-130" fill="#F5BC1E" points="476.429 155.793 476.594 155.793 476.594 111.088 476.429 111.088"></polygon>
                        <polygon id="Fill-131" fill="#F5BD1D" points="476.267 155.793 476.43 155.793 476.43 111.088 476.267 111.088"></polygon>
                        <polygon id="Fill-132" fill="#F7BF20" points="476.102 155.793 476.266 155.793 476.266 111.088 476.102 111.088"></polygon>
                        <polygon id="Fill-133" fill="#F7C021" points="475.937 155.793 476.102 155.793 476.102 111.088 475.937 111.088"></polygon>
                        <polygon id="Fill-134" fill="#F7C121" points="475.775 155.793 475.937 155.793 475.937 111.088 475.775 111.088"></polygon>
                        <polygon id="Fill-135" fill="#F7C221" points="475.611 155.793 475.775 155.793 475.775 111.088 475.611 111.088"></polygon>
                        <polygon id="Fill-136" fill="#F7C322" points="475.448 155.793 475.612 155.793 475.612 111.088 475.448 111.088"></polygon>
                        <polygon id="Fill-137" fill="#F8C522" points="475.285 155.793 475.448 155.793 475.448 111.088 475.285 111.088"></polygon>
                        <polygon id="Fill-138" fill="#F8C622" points="475.12 155.793 475.285 155.793 475.285 111.088 475.12 111.088"></polygon>
                        <polygon id="Fill-139" fill="#F8C724" points="474.956 155.793 475.12 155.793 475.12 111.088 474.956 111.088"></polygon>
                        <polygon id="Fill-140" fill="#F8C823" points="474.792 155.793 474.956 155.793 474.956 111.088 474.792 111.088"></polygon>
                        <polygon id="Fill-141" fill="#F8C923" points="474.629 155.793 474.793 155.793 474.793 111.088 474.629 111.088"></polygon>
                        <polygon id="Fill-142" fill="#F8CA23" points="474.465 155.793 474.629 155.793 474.629 111.088 474.465 111.088"></polygon>
                        <polygon id="Fill-143" fill="#F9CB23" points="474.301 155.793 474.465 155.793 474.465 111.088 474.301 111.088"></polygon>
                        <polygon id="Fill-144" fill="#F9CC21" points="474.138 155.793 474.301 155.793 474.301 111.088 474.138 111.088"></polygon>
                        <polygon id="Fill-145" fill="#F9CD20" points="473.973 155.793 474.138 155.793 474.138 111.088 473.973 111.088"></polygon>
                        <polygon id="Fill-146" fill="#F8CD21" points="473.809 155.793 473.973 155.793 473.973 111.088 473.809 111.088"></polygon>
                        <polygon id="Fill-147" fill="#F8CE21" points="473.647 155.793 473.809 155.793 473.809 111.088 473.647 111.088"></polygon>
                        <polygon id="Fill-148" fill="#F7CF21" points="473.483 155.793 473.647 155.793 473.647 111.088 473.483 111.088"></polygon>
                        <polygon id="Fill-149" fill="#F8D021" points="473.318 155.793 473.483 155.793 473.483 111.088 473.318 111.088"></polygon>
                        <polygon id="Fill-150" fill="#F9D121" points="473.155 155.793 473.318 155.793 473.318 111.088 473.155 111.088"></polygon>
                        <polygon id="Fill-151" fill="#F9D221" points="472.991 155.793 473.155 155.793 473.155 111.088 472.991 111.088"></polygon>
                        <polygon id="Fill-152" fill="#F8D321" points="472.827 155.793 472.992 155.793 472.992 111.088 472.827 111.088"></polygon>
                        <polygon id="Fill-153" fill="#F8D421" points="472.664 155.793 472.827 155.793 472.827 111.088 472.664 111.088"></polygon>
                        <polygon id="Fill-154" fill="#F8D521" points="472.5 155.793 472.664 155.793 472.664 111.088 472.5 111.088"></polygon>
                        <polygon id="Fill-155" fill="#F9D620" points="472.336 155.793 472.5 155.793 472.5 111.088 472.336 111.088"></polygon>
                        <polygon id="Fill-156" fill="#F8D71F" points="472.172 155.793 472.337 155.793 472.337 111.088 472.172 111.088"></polygon>
                        <polygon id="Fill-157" fill="#F8D81E" points="472.009 155.793 472.172 155.793 472.172 111.088 472.009 111.088"></polygon>
                        <polygon id="Fill-158" fill="#F8D81E" points="471.845 155.793 472.009 155.793 472.009 111.088 471.845 111.088"></polygon>
                        <polygon id="Fill-159" fill="#F8DA1C" points="471.681 155.793 471.845 155.793 471.845 111.088 471.681 111.088"></polygon>
                        <polygon id="Fill-160" fill="#F9DB1B" points="471.516 155.793 471.68 155.793 471.68 111.088 471.516 111.088"></polygon>
                        <polygon id="Fill-161" fill="#F9DC1B" points="471.353 155.793 471.517 155.793 471.517 111.088 471.353 111.088"></polygon>
                        <polygon id="Fill-162" fill="#F8DD1B" points="471.19 155.793 471.353 155.793 471.353 111.088 471.19 111.088"></polygon>
                        <polygon id="Fill-163" fill="#F8DE1A" points="471.027 155.793 471.19 155.793 471.19 111.088 471.027 111.088"></polygon>
                        <polygon id="Fill-164" fill="#F8DF1A" points="470.862 155.793 471.027 155.793 471.027 111.088 470.862 111.088"></polygon>
                        <polygon id="Fill-165" fill="#F9E01C" points="470.698 155.793 470.862 155.793 470.862 111.088 470.698 111.088"></polygon>
                        <polygon id="Fill-166" fill="#F9E11B" points="470.535 155.793 470.698 155.793 470.698 111.088 470.535 111.088"></polygon>
                        <polygon id="Fill-167" fill="#F9E21B" points="470.371 155.793 470.535 155.793 470.535 111.088 470.371 111.088"></polygon>
                        <polygon id="Fill-168" fill="#F9E31C" points="470.207 155.793 470.372 155.793 470.372 111.088 470.207 111.088"></polygon>
                        <polygon id="Fill-169" fill="#F9E31C" points="470.044 155.793 470.207 155.793 470.207 111.088 470.044 111.088"></polygon>
                        <polygon id="Fill-170" fill="#F9E41A" points="469.88 155.793 470.044 155.793 470.044 111.088 469.88 111.088"></polygon>
                        <polygon id="Fill-171" fill="#FAE619" points="469.715 155.793 469.88 155.793 469.88 111.088 469.715 111.088"></polygon>
                        <polygon id="Fill-172" fill="#FAE618" points="469.552 155.793 469.716 155.793 469.716 111.088 469.552 111.088"></polygon>
                        <polygon id="Fill-173" fill="#FAE718" points="469.389 155.793 469.552 155.793 469.552 111.088 469.389 111.088"></polygon>
                        <polygon id="Fill-174" fill="#F9E81B" points="469.225 155.793 469.389 155.793 469.389 111.088 469.225 111.088"></polygon>
                        <polygon id="Fill-175" fill="#F9E91D" points="469.059 155.793 469.224 155.793 469.224 111.088 469.059 111.088"></polygon>
                        <polygon id="Fill-176" fill="#F9EB1F" points="468.897 155.793 469.059 155.793 469.059 111.088 468.897 111.088"></polygon>
                        <polygon id="Fill-177" fill="#F8EC21" points="468.733 155.793 468.897 155.793 468.897 111.088 468.733 111.088"></polygon>
                        <path d="M468.7335,111.0877 L468.7335,155.7927 L468.7335,111.0877 Z" id="Fill-178" fill="#F8EC21"></path>
                        <path d="M472.798,151.729 L479.571,151.729 L479.571,115.151 L472.798,115.151 L472.798,151.729 Z M464.669,159.857 L487.699,159.857 L487.699,107.023 L464.669,107.023 L464.669,159.857 Z" id="Fill-179" fill="#1A1A1A"></path>
                        <g id="Group-189" transform="translate(0.000000, 39.816000)">
                            <path d="M8.1934,80.7544 L4.0644,80.7544 L4.0644,125.4604 L17.6114,125.4604 L17.6114,90.1724 C17.6114,84.9714 13.3944,80.7544 8.1934,80.7544" id="Fill-180" fill="#BF282D"></path>
                            <g id="Group-184" transform="translate(0.000000, 76.000000)">
                                <mask id="mask-12" fill="white">
                                    <use xlink:href="#path-11"></use>
                                </mask>
                                <g id="Clip-183"></g>
                                <path d="M13.5469,14.1729 C13.5469,11.2209 11.1469,8.8189 8.1929,8.8189 L8.1279,8.8189 L8.1279,45.3959 L13.5469,45.3959 L13.5469,14.1729 Z M-0.0001,0.6909 L8.1929,0.6909 C15.6269,0.6909 21.6759,6.7379 21.6759,14.1729 L21.6759,53.5249 L-0.0001,53.5249 L-0.0001,0.6909 Z" id="Fill-182" fill="#1A1A1A" mask="url(#mask-12)"></path>
                            </g>
                            <path d="M366.4072,34.6938 L352.9502,34.6938 C352.5532,34.6938 352.2272,34.3688 352.2272,33.9718 L352.2272,1.5478 C352.2272,1.1508 352.5532,0.8258 352.9502,0.8258 L366.4072,0.8258 C366.8032,0.8258 367.1292,1.1508 367.1292,1.5478 L367.1292,33.9718 C367.1292,34.3688 366.8032,34.6938 366.4072,34.6938" id="Fill-185" fill="#1A1A1A"></path>
                            <path d="M366.4072,55.0146 L352.9502,55.0146 C352.5532,55.0146 352.2272,54.6896 352.2272,54.2926 L352.2272,38.1256 C352.2272,37.7286 352.5532,37.4036 352.9502,37.4036 L366.4072,37.4036 C366.8032,37.4036 367.1292,37.7286 367.1292,38.1256 L367.1292,54.2926 C367.1292,54.6896 366.8032,55.0146 366.4072,55.0146" id="Fill-187" fill="#1A1A1A"></path>
                        </g>
                    </g>
                </g>
            </g>
        </g>
    </g>
</svg>